<mxfile host="Electron" agent="Mozilla/5.0 (Windows NT 10.0; Win64; x64) AppleWebKit/537.36 (KHTML, like Gecko) draw.io/24.7.17 Chrome/128.0.6613.36 Electron/32.0.1 Safari/537.36" version="24.7.17">
  <diagram name="Page-1" id="KEOBn_xRMPJSZYfgFPgV">
    <mxGraphModel dx="840" dy="497" grid="1" gridSize="10" guides="1" tooltips="1" connect="1" arrows="1" fold="1" page="1" pageScale="1" pageWidth="850" pageHeight="1100" math="0" shadow="0">
      <root>
        <mxCell id="0" />
        <mxCell id="1" parent="0" />
        <mxCell id="181EAxW_J127pjRtmNTi-1" value="USER INTERFACE" style="swimlane;fontStyle=1;childLayout=stackLayout;horizontal=1;startSize=30;horizontalStack=0;resizeParent=1;resizeParentMax=0;resizeLast=0;collapsible=1;marginBottom=0;whiteSpace=wrap;html=1;fillColor=#6CB075;gradientColor=#15540B;strokeColor=#82b366;" parent="1" vertex="1">
          <mxGeometry x="330" y="120" width="140" height="170" as="geometry" />
        </mxCell>
        <mxCell id="181EAxW_J127pjRtmNTi-2" value="&lt;font color=&quot;#000000&quot;&gt;Tools: HTML &amp;amp; CSS&lt;/font&gt;&lt;div&gt;&lt;font style=&quot;font-size: 10px;&quot; color=&quot;#000000&quot;&gt;&lt;i&gt;Local Hosted on port 5500&lt;/i&gt;&lt;/font&gt;&lt;/div&gt;" style="text;strokeColor=#3A5431;fillColor=#6d8764;align=left;verticalAlign=middle;spacingLeft=4;spacingRight=4;overflow=hidden;points=[[0,0.5],[1,0.5]];portConstraint=eastwest;rotatable=0;whiteSpace=wrap;html=1;fontColor=#ffffff;" parent="181EAxW_J127pjRtmNTi-1" vertex="1">
          <mxGeometry y="30" width="140" height="40" as="geometry" />
        </mxCell>
        <mxCell id="181EAxW_J127pjRtmNTi-3" value="Features:&amp;nbsp;&lt;div&gt;-Registration &amp;amp; Login page&lt;/div&gt;&lt;div&gt;-Dashboard&lt;/div&gt;&lt;div&gt;-Profile Content Manageable Level&lt;/div&gt;&lt;div&gt;&lt;br&gt;&lt;/div&gt;" style="text;strokeColor=none;fillColor=none;align=left;verticalAlign=middle;spacingLeft=4;spacingRight=4;overflow=hidden;points=[[0,0.5],[1,0.5]];portConstraint=eastwest;rotatable=0;whiteSpace=wrap;html=1;" parent="181EAxW_J127pjRtmNTi-1" vertex="1">
          <mxGeometry y="70" width="140" height="100" as="geometry" />
        </mxCell>
        <mxCell id="181EAxW_J127pjRtmNTi-6" value="&lt;b&gt;BACK-END API&lt;/b&gt;" style="swimlane;fontStyle=0;childLayout=stackLayout;horizontal=1;startSize=30;horizontalStack=0;resizeParent=1;resizeParentMax=0;resizeLast=0;collapsible=1;marginBottom=0;whiteSpace=wrap;html=1;fillColor=#E3C503;gradientColor=#9C8708;strokeColor=#d6b656;" parent="1" vertex="1">
          <mxGeometry x="330" y="370" width="140" height="160" as="geometry" />
        </mxCell>
        <mxCell id="181EAxW_J127pjRtmNTi-7" value="Tools: Node.js&lt;div&gt;&lt;font style=&quot;font-size: 10px;&quot;&gt;&lt;i&gt;Local Hosted on port 3000&lt;/i&gt;&lt;/font&gt;&lt;/div&gt;" style="text;strokeColor=#d6b656;fillColor=#fff2cc;align=left;verticalAlign=middle;spacingLeft=4;spacingRight=4;overflow=hidden;points=[[0,0.5],[1,0.5]];portConstraint=eastwest;rotatable=0;whiteSpace=wrap;html=1;fontColor=#000000;" parent="181EAxW_J127pjRtmNTi-6" vertex="1">
          <mxGeometry y="30" width="140" height="40" as="geometry" />
        </mxCell>
        <mxCell id="181EAxW_J127pjRtmNTi-8" value="Features:&amp;nbsp;&lt;div&gt;-Authentication&lt;/div&gt;&lt;div&gt;-Role-based access control&lt;/div&gt;&lt;div&gt;- CRUD operations&lt;/div&gt;&lt;div&gt;-Data validation&lt;/div&gt;&lt;div&gt;&lt;br&gt;&lt;/div&gt;" style="text;strokeColor=none;fillColor=none;align=left;verticalAlign=middle;spacingLeft=4;spacingRight=4;overflow=hidden;points=[[0,0.5],[1,0.5]];portConstraint=eastwest;rotatable=0;whiteSpace=wrap;html=1;" parent="181EAxW_J127pjRtmNTi-6" vertex="1">
          <mxGeometry y="70" width="140" height="90" as="geometry" />
        </mxCell>
        <mxCell id="181EAxW_J127pjRtmNTi-10" value="&lt;b&gt;DATABASE&lt;/b&gt;" style="swimlane;fontStyle=0;childLayout=stackLayout;horizontal=1;startSize=30;horizontalStack=0;resizeParent=1;resizeParentMax=0;resizeLast=0;collapsible=1;marginBottom=0;whiteSpace=wrap;html=1;fillColor=#7872D6;gradientColor=#1A387D;strokeColor=#6c8ebf;" parent="1" vertex="1">
          <mxGeometry x="567.9" y="580" width="140" height="180" as="geometry" />
        </mxCell>
        <mxCell id="181EAxW_J127pjRtmNTi-11" value="Tools: PostgreSQL&lt;div style=&quot;font-size: 10px;&quot;&gt;&lt;i&gt;Local Hosted on port 5432&lt;/i&gt;&lt;/div&gt;" style="text;strokeColor=#23445d;fillColor=#bac8d3;align=left;verticalAlign=middle;spacingLeft=4;spacingRight=4;overflow=hidden;points=[[0,0.5],[1,0.5]];portConstraint=eastwest;rotatable=0;whiteSpace=wrap;html=1;fontColor=#000000;" parent="181EAxW_J127pjRtmNTi-10" vertex="1">
          <mxGeometry y="30" width="140" height="40" as="geometry" />
        </mxCell>
        <mxCell id="181EAxW_J127pjRtmNTi-12" value="Features:&lt;div&gt;-Accounts&lt;/div&gt;&lt;div&gt;-Profiles&lt;/div&gt;&lt;div&gt;-Subscription&lt;/div&gt;&lt;div&gt;-Movies&lt;/div&gt;&lt;div&gt;-Subtitles&lt;/div&gt;&lt;div&gt;-Episodes&lt;/div&gt;&lt;div&gt;-&lt;/div&gt;" style="text;strokeColor=none;fillColor=none;align=left;verticalAlign=middle;spacingLeft=4;spacingRight=4;overflow=hidden;points=[[0,0.5],[1,0.5]];portConstraint=eastwest;rotatable=0;whiteSpace=wrap;html=1;" parent="181EAxW_J127pjRtmNTi-10" vertex="1">
          <mxGeometry y="70" width="140" height="110" as="geometry" />
        </mxCell>
        <mxCell id="181EAxW_J127pjRtmNTi-14" value="&lt;b&gt;EXTERNAL API&lt;/b&gt;" style="swimlane;fontStyle=0;childLayout=stackLayout;horizontal=1;startSize=30;horizontalStack=0;resizeParent=1;resizeParentMax=0;resizeLast=0;collapsible=1;marginBottom=0;whiteSpace=wrap;html=1;fillColor=#990099;gradientColor=#330033;strokeColor=#990099;" parent="1" vertex="1">
          <mxGeometry x="30" y="395" width="140" height="100" as="geometry" />
        </mxCell>
        <mxCell id="181EAxW_J127pjRtmNTi-15" value="Tools: TMDB API (The movie database)" style="text;strokeColor=#FFCCFF;fillColor=#FFCCFF;align=left;verticalAlign=middle;spacingLeft=4;spacingRight=4;overflow=hidden;points=[[0,0.5],[1,0.5]];portConstraint=eastwest;rotatable=0;whiteSpace=wrap;html=1;fontColor=#000000;" parent="181EAxW_J127pjRtmNTi-14" vertex="1">
          <mxGeometry y="30" width="140" height="30" as="geometry" />
        </mxCell>
        <mxCell id="181EAxW_J127pjRtmNTi-16" value="Features;&lt;div&gt;-provide movie data&lt;/div&gt;" style="text;strokeColor=none;fillColor=none;align=left;verticalAlign=middle;spacingLeft=4;spacingRight=4;overflow=hidden;points=[[0,0.5],[1,0.5]];portConstraint=eastwest;rotatable=0;whiteSpace=wrap;html=1;" parent="181EAxW_J127pjRtmNTi-14" vertex="1">
          <mxGeometry y="60" width="140" height="40" as="geometry" />
        </mxCell>
        <mxCell id="181EAxW_J127pjRtmNTi-18" value="&lt;b&gt;AUTHENTICATION LAYER&lt;/b&gt;" style="swimlane;fontStyle=0;childLayout=stackLayout;horizontal=1;startSize=30;horizontalStack=0;resizeParent=1;resizeParentMax=0;resizeLast=0;collapsible=1;marginBottom=0;whiteSpace=wrap;html=1;fillColor=#FF0000;gradientColor=#5E1300;strokeColor=#b85450;" parent="1" vertex="1">
          <mxGeometry x="680" y="380" width="140" height="110" as="geometry" />
        </mxCell>
        <mxCell id="181EAxW_J127pjRtmNTi-19" value="Tools: JSON and XML Web Tokens" style="text;strokeColor=#b85450;fillColor=#f8cecc;align=left;verticalAlign=middle;spacingLeft=4;spacingRight=4;overflow=hidden;points=[[0,0.5],[1,0.5]];portConstraint=eastwest;rotatable=0;whiteSpace=wrap;html=1;fontColor=#000000;" parent="181EAxW_J127pjRtmNTi-18" vertex="1">
          <mxGeometry y="30" width="140" height="40" as="geometry" />
        </mxCell>
        <mxCell id="181EAxW_J127pjRtmNTi-20" value="Features:&lt;div&gt;-Role verification&lt;/div&gt;" style="text;strokeColor=none;fillColor=none;align=left;verticalAlign=middle;spacingLeft=4;spacingRight=4;overflow=hidden;points=[[0,0.5],[1,0.5]];portConstraint=eastwest;rotatable=0;whiteSpace=wrap;html=1;" parent="181EAxW_J127pjRtmNTi-18" vertex="1">
          <mxGeometry y="70" width="140" height="40" as="geometry" />
        </mxCell>
        <mxCell id="181EAxW_J127pjRtmNTi-35" value="" style="endArrow=classic;html=1;rounded=0;entryX=-0.021;entryY=0.399;entryDx=0;entryDy=0;entryPerimeter=0;exitX=0.807;exitY=1.008;exitDx=0;exitDy=0;exitPerimeter=0;" parent="1" source="181EAxW_J127pjRtmNTi-8" target="181EAxW_J127pjRtmNTi-12" edge="1">
          <mxGeometry relative="1" as="geometry">
            <mxPoint x="507.9" y="480" as="sourcePoint" />
            <mxPoint x="607.9" y="480" as="targetPoint" />
            <Array as="points">
              <mxPoint x="450" y="590" />
            </Array>
          </mxGeometry>
        </mxCell>
        <mxCell id="181EAxW_J127pjRtmNTi-36" value="SQL queries via pg library" style="edgeLabel;resizable=0;html=1;;align=center;verticalAlign=middle;" parent="181EAxW_J127pjRtmNTi-35" connectable="0" vertex="1">
          <mxGeometry relative="1" as="geometry" />
        </mxCell>
        <mxCell id="181EAxW_J127pjRtmNTi-38" value="" style="endArrow=classic;html=1;rounded=0;exitX=0.494;exitY=0.995;exitDx=0;exitDy=0;exitPerimeter=0;entryX=0.5;entryY=0;entryDx=0;entryDy=0;" parent="1" source="181EAxW_J127pjRtmNTi-3" target="181EAxW_J127pjRtmNTi-6" edge="1">
          <mxGeometry relative="1" as="geometry">
            <mxPoint x="407.9" y="340" as="sourcePoint" />
            <mxPoint x="507.9" y="340" as="targetPoint" />
          </mxGeometry>
        </mxCell>
        <mxCell id="181EAxW_J127pjRtmNTi-39" value="RESTful API requests&lt;div&gt;&amp;nbsp;(GET, POST, DELETE, PUT)&lt;/div&gt;" style="edgeLabel;resizable=0;html=1;;align=center;verticalAlign=middle;" parent="181EAxW_J127pjRtmNTi-38" connectable="0" vertex="1">
          <mxGeometry relative="1" as="geometry">
            <mxPoint x="5" as="offset" />
          </mxGeometry>
        </mxCell>
        <mxCell id="181EAxW_J127pjRtmNTi-40" value="" style="endArrow=classic;html=1;rounded=0;exitX=0.009;exitY=0.214;exitDx=0;exitDy=0;exitPerimeter=0;" parent="1" source="181EAxW_J127pjRtmNTi-8" target="181EAxW_J127pjRtmNTi-14" edge="1">
          <mxGeometry relative="1" as="geometry">
            <mxPoint x="377.9" y="460" as="sourcePoint" />
            <mxPoint x="199.99999999999991" y="403.87" as="targetPoint" />
          </mxGeometry>
        </mxCell>
        <mxCell id="181EAxW_J127pjRtmNTi-41" value="RESTful data fetching&lt;div&gt;&lt;br&gt;&lt;/div&gt;" style="edgeLabel;resizable=0;html=1;;align=center;verticalAlign=middle;" parent="181EAxW_J127pjRtmNTi-40" connectable="0" vertex="1">
          <mxGeometry relative="1" as="geometry">
            <mxPoint y="9" as="offset" />
          </mxGeometry>
        </mxCell>
        <mxCell id="181EAxW_J127pjRtmNTi-43" value="" style="endArrow=classic;html=1;rounded=0;entryX=0;entryY=0.25;entryDx=0;entryDy=0;exitX=1.019;exitY=0.148;exitDx=0;exitDy=0;exitPerimeter=0;" parent="1" source="181EAxW_J127pjRtmNTi-6" target="181EAxW_J127pjRtmNTi-18" edge="1">
          <mxGeometry relative="1" as="geometry">
            <mxPoint x="507.9" y="420" as="sourcePoint" />
            <mxPoint x="607.9" y="420" as="targetPoint" />
          </mxGeometry>
        </mxCell>
        <mxCell id="181EAxW_J127pjRtmNTi-44" value="Forward requests for&amp;nbsp;&lt;div&gt;authentication and authorization&lt;/div&gt;" style="edgeLabel;resizable=0;html=1;;align=center;verticalAlign=middle;" parent="181EAxW_J127pjRtmNTi-43" connectable="0" vertex="1">
          <mxGeometry relative="1" as="geometry" />
        </mxCell>
        <mxCell id="181EAxW_J127pjRtmNTi-45" value="" style="endArrow=classic;html=1;rounded=0;entryX=0.462;entryY=-0.011;entryDx=0;entryDy=0;entryPerimeter=0;exitX=0.47;exitY=0.967;exitDx=0;exitDy=0;exitPerimeter=0;" parent="1" source="181EAxW_J127pjRtmNTi-20" target="181EAxW_J127pjRtmNTi-10" edge="1">
          <mxGeometry relative="1" as="geometry">
            <mxPoint x="692.9" y="420" as="sourcePoint" />
            <mxPoint x="757.9" y="450" as="targetPoint" />
          </mxGeometry>
        </mxCell>
        <mxCell id="181EAxW_J127pjRtmNTi-46" value="User role verification" style="edgeLabel;resizable=0;html=1;;align=center;verticalAlign=middle;" parent="181EAxW_J127pjRtmNTi-45" connectable="0" vertex="1">
          <mxGeometry relative="1" as="geometry" />
        </mxCell>
        <mxCell id="181EAxW_J127pjRtmNTi-48" value="" style="endArrow=classic;html=1;rounded=0;exitX=0.017;exitY=0.229;exitDx=0;exitDy=0;exitPerimeter=0;entryX=1.022;entryY=0.424;entryDx=0;entryDy=0;entryPerimeter=0;" parent="1" source="181EAxW_J127pjRtmNTi-20" target="181EAxW_J127pjRtmNTi-8" edge="1">
          <mxGeometry relative="1" as="geometry">
            <mxPoint x="540" y="454.57" as="sourcePoint" />
            <mxPoint x="640" y="454.57" as="targetPoint" />
          </mxGeometry>
        </mxCell>
        <mxCell id="181EAxW_J127pjRtmNTi-49" value="Return validation and access&lt;div&gt;&amp;nbsp;control results&lt;/div&gt;" style="edgeLabel;resizable=0;html=1;;align=center;verticalAlign=middle;" parent="181EAxW_J127pjRtmNTi-48" connectable="0" vertex="1">
          <mxGeometry relative="1" as="geometry" />
        </mxCell>
      </root>
    </mxGraphModel>
  </diagram>
</mxfile>
